<svg width="360" height="287" viewBox="0 0 360 287" fill="none" xmlns="http://www.w3.org/2000/svg">
<path d="M344.834 242.874C342.863 252.773 335.49 261.175 323.704 267.868C311.92 274.561 295.78 279.511 276.411 282.521C237.677 288.54 186.137 286.782 130.982 275.802C75.8278 264.823 27.5442 246.709 -5.93208 226.315C-22.6721 216.117 -35.6854 205.363 -44.0082 194.668C-52.3323 183.971 -55.9258 173.386 -53.9551 163.487C-51.9845 153.588 -44.6114 145.186 -32.8254 138.492C-21.041 131.8 -4.9015 126.849 14.4678 123.84C53.202 117.821 104.742 119.579 159.896 130.559C215.051 141.538 263.334 159.652 296.811 180.046C313.551 190.244 326.564 200.998 334.887 211.693C343.211 222.39 346.804 232.975 344.834 242.874Z" stroke="#2E2E2E"/>
<path d="M344.834 197.736C342.863 207.635 335.49 216.036 323.704 222.73C311.92 229.423 295.78 234.373 276.411 237.383C237.677 243.401 186.137 241.643 130.982 230.664C75.8278 219.684 27.5442 201.57 -5.93208 181.176C-22.6721 170.978 -35.6854 160.225 -44.0082 149.529C-52.3323 138.832 -55.9258 128.247 -53.9551 118.348C-51.9845 108.449 -44.6114 100.048 -32.8254 93.3539C-21.041 86.6611 -4.9015 81.7109 14.4678 78.7012C53.202 72.6824 104.742 74.4404 159.896 85.4201C215.051 96.3998 263.334 114.514 296.811 134.907C313.551 145.105 326.564 155.859 334.887 166.555C343.211 177.252 346.804 187.836 344.834 197.736Z" stroke="#2E2E2E"/>
<path d="M344.834 152.597C342.863 162.496 335.49 170.898 323.704 177.592C311.92 184.284 295.78 189.234 276.411 192.244C237.677 198.263 186.137 196.505 130.982 185.525C75.8278 174.546 27.5442 156.432 -5.93208 136.038C-22.6721 125.84 -35.6854 115.086 -44.0082 104.391C-52.3323 93.6937 -55.9258 83.109 -53.9551 73.2098C-51.9845 63.3107 -44.6114 54.9091 -32.8254 48.2154C-21.041 41.5226 -4.9015 36.5725 14.4678 33.5627C53.202 27.544 104.742 29.302 159.896 40.2816C215.051 51.2613 263.334 69.3752 296.811 89.769C313.551 99.967 326.564 110.721 334.887 121.416C343.211 132.113 346.804 142.698 344.834 152.597Z" stroke="#2E2E2E"/>
</svg>
