<svg width="515" height="380" viewBox="0 0 515 380" fill="none" xmlns="http://www.w3.org/2000/svg">
<path d="M497.066 291.514C494.696 303.417 485.833 313.507 471.694 321.537C457.556 329.567 438.2 335.502 414.979 339.11C368.541 346.326 306.759 344.218 240.648 331.057C174.536 317.896 116.657 296.183 76.5227 271.734C56.454 259.508 40.8466 246.612 30.8616 233.78C20.8754 220.947 16.5517 208.233 18.9212 196.33C21.2908 184.427 30.1542 174.337 44.2936 166.307C58.4315 158.277 77.7876 152.342 101.008 148.734C147.446 141.518 209.228 143.626 275.34 156.787C341.451 169.948 399.331 191.661 439.464 216.111C459.533 228.336 475.141 241.232 485.126 254.064C495.112 266.897 499.436 279.611 497.066 291.514Z" stroke="#2E2E2E"/>
<path d="M497.066 237.416C494.696 249.319 485.833 259.408 471.694 267.439C457.556 275.468 438.2 281.404 414.979 285.012C368.541 292.228 306.759 290.119 240.648 276.958C174.536 263.798 116.657 242.085 76.5227 217.635C56.454 205.409 40.8466 192.513 30.8616 179.682C20.8754 166.849 16.5517 154.134 18.9212 142.231C21.2908 130.328 30.1542 120.239 44.2936 112.208C58.4315 104.179 77.7876 98.2434 101.008 94.6352C147.446 87.4194 209.228 89.5277 275.34 102.689C341.451 115.849 399.331 137.562 439.464 162.012C459.533 174.238 475.141 187.133 485.126 199.965C495.112 212.798 499.436 225.513 497.066 237.416Z" stroke="#2E2E2E"/>
<path d="M497.066 183.317C494.696 195.22 485.833 205.31 471.694 213.34C457.556 221.369 438.2 227.305 414.979 230.913C368.541 238.129 306.759 236.021 240.648 222.86C174.536 209.699 116.657 187.986 76.5227 163.536C56.454 151.31 40.8466 138.415 30.8616 125.583C20.8754 112.75 16.5517 100.035 18.9212 88.1325C21.2908 76.2295 30.1542 66.14 44.2936 58.1096C58.4315 50.0802 77.7876 44.1447 101.008 40.5365C147.446 33.3208 209.228 35.4291 275.34 48.5899C341.451 61.7508 399.331 83.4638 439.464 107.913C459.533 120.139 475.141 133.035 485.126 145.866C495.112 158.7 499.436 171.414 497.066 183.317Z" stroke="#2E2E2E"/>
<mask id="path-4-outside-1_96_43" maskUnits="userSpaceOnUse" x="108.94" y="81.5768" width="280.426" height="212.622" fill="black">
<rect fill="white" x="108.94" y="81.5768" width="280.426" height="212.622"/>
<path d="M141.397 98.9703L146.818 90.0198L186.89 114.288L181.469 123.239L166.278 114.039L136.887 162.569L127.197 156.7L156.588 108.171L141.397 98.9703ZM166.194 164.268C165.431 165.527 165.069 166.805 165.108 168.1C165.179 169.341 165.603 170.495 166.378 171.563C167.207 172.664 168.306 173.629 169.675 174.457C171.481 175.552 173.312 176.174 175.166 176.324C177.108 176.453 178.932 176.098 180.637 175.26C182.341 174.422 183.774 173.045 184.934 171.129L183.264 176.851C181.805 179.26 179.867 180.855 177.449 181.635C175.086 182.448 172.588 182.619 169.956 182.147C167.412 181.654 165.044 180.744 162.855 179.418C160.501 177.992 158.593 176.201 157.131 174.043C155.669 171.886 154.883 169.54 154.773 167.004C154.662 164.468 155.386 161.913 156.945 159.34C159.166 155.673 162.21 153.55 166.076 152.974C169.975 152.342 174.278 153.452 178.986 156.303C181.504 157.828 183.501 159.412 184.976 161.053C186.506 162.728 187.641 164.313 188.381 165.809C189.154 167.25 189.605 168.421 189.733 169.321L186.998 173.837C186.03 171.605 184.754 169.635 183.169 167.928C181.585 166.22 179.725 164.719 177.59 163.426C175.729 162.299 174.074 161.634 172.626 161.43C171.211 161.172 169.954 161.271 168.855 161.727C167.81 162.217 166.923 163.064 166.194 164.268ZM173.199 146.401L173.365 137.972C175.747 137.993 178.577 138.323 181.856 138.962C185.136 139.601 188.554 140.998 192.113 143.153C195.178 145.01 197.634 147.133 199.479 149.522C201.357 151.857 202.423 154.298 202.676 156.845C202.983 159.426 202.374 161.975 200.849 164.494L184.538 191.427L175.833 186.156L191.101 160.947C191.83 159.742 192.235 158.641 192.316 157.642C192.397 156.644 192.204 155.666 191.736 154.709C191.322 153.786 190.689 152.916 189.837 152.1C188.984 151.284 187.983 150.528 186.833 149.832C185.081 148.771 183.279 147.979 181.426 147.456C179.661 146.91 178.049 146.607 176.59 146.547C175.163 146.431 174.033 146.382 173.199 146.401ZM236.951 135.628L245.902 141.049L207.112 205.099L198.161 199.678L236.951 135.628ZM260.115 149.657L268.819 154.929L230.029 218.978L221.325 213.707L260.115 149.657ZM266.783 189.61L277.704 196.224L251.914 201.929L256.47 234.992L245.631 228.427L241.075 195.365L266.783 189.61ZM297.243 187.519C298.171 185.986 299.498 185.031 301.223 184.654C303.002 184.31 304.631 184.586 306.109 185.481C307.697 186.442 308.723 187.775 309.188 189.478C309.653 191.181 309.421 192.799 308.493 194.332C307.598 195.81 306.271 196.765 304.513 197.197C302.788 197.574 301.132 197.281 299.545 196.32C298.067 195.425 297.068 194.109 296.548 192.373C296.116 190.615 296.348 188.997 297.243 187.519ZM289.374 203.292L298.16 208.613L275.284 246.386L266.498 241.065L289.374 203.292ZM299.335 235.138C301.689 231.251 304.637 228.36 308.179 226.465C311.776 224.603 315.605 223.779 319.665 223.994C323.813 224.186 327.803 225.443 331.635 227.764C335.522 230.118 338.484 233.071 340.522 236.625C342.593 240.124 343.609 243.882 343.571 247.899C343.587 251.949 342.418 255.918 340.064 259.805C337.743 263.637 334.768 266.511 331.138 268.428C327.596 270.323 323.778 271.191 319.685 271.031C315.625 270.817 311.651 269.533 307.764 267.179C303.932 264.858 300.953 261.932 298.828 258.4C296.79 254.846 295.763 251.044 295.747 246.994C295.818 242.922 297.014 238.97 299.335 235.138ZM308.45 240.658C307.024 243.012 306.257 245.391 306.148 247.794C306.073 250.143 306.569 252.351 307.636 254.419C308.736 256.432 310.354 258.085 312.489 259.378C314.624 260.671 316.838 261.339 319.132 261.381C321.459 261.369 323.645 260.785 325.692 259.63C327.771 258.42 329.524 256.638 330.949 254.284C332.375 251.93 333.142 249.552 333.251 247.149C333.36 244.745 332.864 242.537 331.764 240.524C330.663 238.511 329.046 236.858 326.911 235.565C324.776 234.272 322.561 233.604 320.267 233.562C317.974 233.519 315.787 234.103 313.708 235.313C311.628 236.522 309.876 238.304 308.45 240.658ZM340.084 279.906C341.045 278.319 342.405 277.309 344.163 276.877C346.009 276.424 347.753 276.695 349.395 277.689C351.038 278.684 352.058 280.087 352.457 281.9C352.888 283.658 352.624 285.331 351.662 286.918C350.734 288.451 349.374 289.461 347.583 289.947C345.792 290.434 344.075 290.18 342.433 289.185C340.791 288.191 339.743 286.77 339.289 284.925C338.891 283.112 339.156 281.439 340.084 279.906Z"/>
</mask>
<path d="M141.397 98.9703L140.541 98.4523L140.023 99.3077L140.879 99.8257L141.397 98.9703ZM146.818 90.0198L147.336 89.1645L146.48 88.6464L145.962 89.5018L146.818 90.0198ZM186.89 114.288L187.745 114.807L188.263 113.951L187.408 113.433L186.89 114.288ZM181.469 123.239L180.951 124.094L181.806 124.612L182.324 123.757L181.469 123.239ZM166.278 114.039L166.796 113.183L165.94 112.665L165.422 113.521L166.278 114.039ZM136.887 162.569L136.369 163.424L137.224 163.942L137.742 163.087L136.887 162.569ZM127.197 156.7L126.342 156.182L125.824 157.038L126.679 157.556L127.197 156.7ZM156.588 108.171L157.443 108.689L157.961 107.833L157.106 107.315L156.588 108.171ZM142.252 99.4884L147.673 90.5379L145.962 89.5018L140.541 98.4523L142.252 99.4884ZM146.299 90.8752L186.372 115.144L187.408 113.433L147.336 89.1645L146.299 90.8752ZM186.034 113.77L180.614 122.721L182.324 123.757L187.745 114.807L186.034 113.77ZM181.987 122.384L166.796 113.183L165.76 114.894L180.951 124.094L181.987 122.384ZM165.422 113.521L136.031 162.051L137.742 163.087L167.133 114.557L165.422 113.521ZM137.405 161.713L127.715 155.845L126.679 157.556L136.369 163.424L137.405 161.713ZM128.053 157.218L157.443 108.689L155.733 107.653L126.342 156.182L128.053 157.218ZM157.106 107.315L141.915 98.115L140.879 99.8257L156.07 109.026L157.106 107.315ZM165.108 168.1L164.108 168.13L164.108 168.144L164.109 168.158L165.108 168.1ZM166.378 171.563L165.568 172.15L165.573 172.157L165.579 172.164L166.378 171.563ZM175.166 176.324L175.085 177.321L175.093 177.321L175.1 177.322L175.166 176.324ZM184.934 171.129L185.894 171.409L184.079 170.611L184.934 171.129ZM183.264 176.851L184.12 177.369L184.187 177.257L184.224 177.132L183.264 176.851ZM177.449 181.635L177.142 180.683L177.133 180.686L177.124 180.689L177.449 181.635ZM169.956 182.147L169.766 183.129L169.772 183.13L169.779 183.132L169.956 182.147ZM157.131 174.043L156.303 174.604L157.131 174.043ZM154.773 167.004L153.774 167.047L154.773 167.004ZM166.076 152.974L166.223 153.963L166.235 153.961L166.076 152.974ZM184.976 161.053L184.232 161.721L184.237 161.727L184.976 161.053ZM188.381 165.809L187.484 166.252L187.492 166.267L187.5 166.282L188.381 165.809ZM189.733 169.321L190.588 169.839L190.773 169.534L190.723 169.18L189.733 169.321ZM186.998 173.837L186.08 174.235L186.85 176.011L187.853 174.355L186.998 173.837ZM183.169 167.928L183.902 167.247L183.169 167.928ZM172.626 161.43L172.447 162.414L172.467 162.418L172.487 162.42L172.626 161.43ZM168.855 161.727L168.471 160.804L168.451 160.812L168.43 160.822L168.855 161.727ZM173.199 146.401L172.199 146.381L172.178 147.424L173.221 147.401L173.199 146.401ZM173.365 137.972L173.374 136.972L172.385 136.963L172.365 137.952L173.365 137.972ZM181.856 138.962L181.665 139.943L181.856 138.962ZM199.479 149.522L198.687 150.133L198.693 150.141L198.7 150.149L199.479 149.522ZM202.676 156.845L201.68 156.944L201.681 156.954L201.683 156.964L202.676 156.845ZM184.538 191.427L184.02 192.283L184.875 192.801L185.393 191.945L184.538 191.427ZM175.833 186.156L174.978 185.638L174.46 186.493L175.315 187.011L175.833 186.156ZM191.736 154.709L190.823 155.118L190.83 155.133L190.837 155.149L191.736 154.709ZM189.837 152.1L189.145 152.823L189.837 152.1ZM181.426 147.456L181.131 148.411L181.143 148.415L181.154 148.418L181.426 147.456ZM176.59 146.547L176.509 147.543L176.528 147.545L176.548 147.546L176.59 146.547ZM165.338 163.75C164.49 165.151 164.063 166.616 164.108 168.13L166.107 168.07C166.075 166.993 166.372 165.904 167.049 164.786L165.338 163.75ZM164.109 168.158C164.193 169.601 164.688 170.937 165.568 172.15L167.187 170.975C166.517 170.052 166.166 169.08 166.106 168.042L164.109 168.158ZM165.579 172.164C166.496 173.382 167.697 174.428 169.157 175.313L170.193 173.602C168.916 172.829 167.918 171.945 167.176 170.961L165.579 172.164ZM169.157 175.313C171.078 176.476 173.056 177.156 175.085 177.321L175.247 175.327C173.567 175.191 171.885 174.627 170.193 173.602L169.157 175.313ZM175.1 177.322C177.213 177.462 179.212 177.075 181.078 176.157L180.195 174.363C178.652 175.121 177.004 175.444 175.232 175.326L175.1 177.322ZM181.078 176.157C182.983 175.221 184.548 173.697 185.79 171.647L184.079 170.611C182.999 172.393 181.7 173.623 180.195 174.363L181.078 176.157ZM183.974 170.849L182.304 176.571L184.224 177.132L185.894 171.409L183.974 170.849ZM182.409 176.333C181.06 178.56 179.306 179.985 177.142 180.683L177.756 182.587C180.428 181.724 182.551 179.96 184.12 177.369L182.409 176.333ZM177.124 180.689C174.933 181.443 172.609 181.607 170.132 181.163L169.779 183.132C172.568 183.631 175.239 183.453 177.775 182.58L177.124 180.689ZM170.146 181.166C167.716 180.694 165.46 179.827 163.373 178.563L162.337 180.273C164.629 181.661 167.107 182.613 169.766 183.129L170.146 181.166ZM163.373 178.563C161.135 177.207 159.335 175.514 157.959 173.483L156.303 174.604C157.85 176.888 159.867 178.777 162.337 180.273L163.373 178.563ZM157.959 173.483C156.598 171.474 155.874 169.306 155.772 166.96L153.774 167.047C153.892 169.773 154.74 172.298 156.303 174.604L157.959 173.483ZM155.772 166.96C155.672 164.656 156.325 162.294 157.8 159.858L156.089 158.822C154.448 161.532 153.653 164.28 153.774 167.047L155.772 166.96ZM157.8 159.858C159.884 156.417 162.682 154.491 166.223 153.963L165.928 151.984C161.737 152.61 158.448 154.928 156.089 158.822L157.8 159.858ZM166.235 153.961C169.822 153.38 173.884 154.382 178.468 157.158L179.504 155.448C174.672 152.522 170.127 151.304 165.916 151.986L166.235 153.961ZM178.468 157.158C180.928 158.649 182.84 160.173 184.232 161.721L185.72 160.385C184.161 158.65 182.08 157.008 179.504 155.448L178.468 157.158ZM184.237 161.727C185.725 163.356 186.798 164.864 187.484 166.252L189.277 165.365C188.483 163.761 187.286 162.099 185.714 160.379L184.237 161.727ZM187.5 166.282C188.254 167.688 188.639 168.736 188.743 169.462L190.723 169.18C190.57 168.105 190.054 166.811 189.262 165.336L187.5 166.282ZM188.877 168.803L186.142 173.319L187.853 174.355L190.588 169.839L188.877 168.803ZM187.915 173.44C186.904 171.108 185.567 169.042 183.902 167.247L182.436 168.608C183.94 170.229 185.155 172.102 186.08 174.235L187.915 173.44ZM183.902 167.247C182.25 165.467 180.317 163.909 178.108 162.571L177.072 164.282C179.133 165.53 180.919 166.973 182.436 168.608L183.902 167.247ZM178.108 162.571C176.183 161.405 174.396 160.669 172.765 160.44L172.487 162.42C173.752 162.598 175.275 163.193 177.072 164.282L178.108 162.571ZM172.806 160.446C171.241 160.161 169.783 160.259 168.471 160.804L169.238 162.651C170.126 162.283 171.182 162.183 172.447 162.414L172.806 160.446ZM168.43 160.822C167.171 161.412 166.147 162.415 165.338 163.75L167.049 164.786C167.699 163.713 168.449 163.022 169.279 162.633L168.43 160.822ZM174.198 146.421L174.365 137.992L172.365 137.952L172.199 146.381L174.198 146.421ZM173.356 138.972C175.658 138.992 178.424 139.312 181.665 139.943L182.048 137.98C178.73 137.334 175.836 136.994 173.374 136.972L173.356 138.972ZM181.665 139.943C184.804 140.555 188.113 141.9 191.595 144.009L192.631 142.298C188.996 140.096 185.467 138.647 182.048 137.98L181.665 139.943ZM191.595 144.009C194.574 145.813 196.93 147.858 198.687 150.133L200.27 148.911C198.337 146.408 195.782 144.207 192.631 142.298L191.595 144.009ZM198.7 150.149C200.477 152.359 201.45 154.621 201.68 156.944L203.671 156.747C203.395 153.975 202.237 151.355 200.258 148.895L198.7 150.149ZM201.683 156.964C201.96 159.294 201.42 161.622 199.994 163.976L201.705 165.012C203.329 162.329 204.006 159.558 203.668 156.727L201.683 156.964ZM199.994 163.976L183.682 190.909L185.393 191.945L201.705 165.012L199.994 163.976ZM185.056 190.572L176.352 185.3L175.315 187.011L184.02 192.283L185.056 190.572ZM176.689 186.674L191.956 161.465L190.245 160.429L174.978 185.638L176.689 186.674ZM191.956 161.465C192.735 160.178 193.216 158.926 193.313 157.723L191.32 157.562C191.255 158.356 190.925 159.306 190.245 160.429L191.956 161.465ZM193.313 157.723C193.409 156.534 193.176 155.378 192.634 154.27L190.837 155.149C191.232 155.955 191.385 156.754 191.32 157.562L193.313 157.723ZM192.649 154.301C192.174 153.241 191.459 152.268 190.528 151.378L189.145 152.823C189.92 153.564 190.471 154.33 190.823 155.118L192.649 154.301ZM190.528 151.378C189.616 150.505 188.555 149.706 187.351 148.977L186.315 150.688C187.411 151.351 188.352 152.064 189.145 152.823L190.528 151.378ZM187.351 148.977C185.527 147.872 183.643 147.043 181.698 146.493L181.154 148.418C182.915 148.915 184.635 149.67 186.315 150.688L187.351 148.977ZM181.721 146.5C179.895 145.936 178.196 145.613 176.631 145.547L176.548 147.546C177.902 147.602 179.428 147.885 181.131 148.411L181.721 146.5ZM176.67 145.55C175.23 145.433 174.061 145.381 173.176 145.401L173.221 147.401C174.005 147.383 175.096 147.429 176.509 147.543L176.67 145.55ZM236.951 135.628L237.469 134.773L236.614 134.255L236.096 135.11L236.951 135.628ZM245.902 141.049L246.757 141.567L247.275 140.712L246.42 140.194L245.902 141.049ZM207.112 205.099L206.593 205.954L207.449 206.472L207.967 205.617L207.112 205.099ZM198.161 199.678L197.306 199.16L196.788 200.015L197.643 200.533L198.161 199.678ZM236.433 136.484L245.384 141.904L246.42 140.194L237.469 134.773L236.433 136.484ZM245.046 140.531L206.256 204.581L207.967 205.617L246.757 141.567L245.046 140.531ZM207.63 204.243L198.679 198.823L197.643 200.533L206.593 205.954L207.63 204.243ZM199.016 200.196L237.806 136.146L236.096 135.11L197.306 199.16L199.016 200.196ZM260.115 149.657L260.633 148.802L259.778 148.284L259.26 149.139L260.115 149.657ZM268.819 154.929L269.675 155.447L270.193 154.591L269.337 154.073L268.819 154.929ZM230.029 218.978L229.511 219.834L230.367 220.352L230.885 219.496L230.029 218.978ZM221.325 213.707L220.47 213.189L219.952 214.044L220.807 214.562L221.325 213.707ZM266.783 189.61L267.301 188.755L266.957 188.546L266.564 188.634L266.783 189.61ZM277.704 196.224L277.92 197.201L280.357 196.661L278.222 195.369L277.704 196.224ZM251.914 201.929L251.698 200.953L250.798 201.152L250.924 202.066L251.914 201.929ZM256.47 234.992L255.952 235.847L257.747 236.934L257.461 234.855L256.47 234.992ZM245.631 228.427L244.64 228.564L244.705 229.036L245.113 229.282L245.631 228.427ZM241.075 195.365L240.857 194.389L239.959 194.59L240.085 195.502L241.075 195.365ZM259.597 150.513L268.301 155.784L269.337 154.073L260.633 148.802L259.597 150.513ZM267.964 154.411L229.174 218.46L230.885 219.496L269.675 155.447L267.964 154.411ZM230.547 218.123L221.843 212.851L220.807 214.562L229.511 219.834L230.547 218.123ZM222.18 214.225L260.971 150.175L259.26 149.139L220.47 213.189L222.18 214.225ZM266.265 190.465L277.186 197.079L278.222 195.369L267.301 188.755L266.265 190.465ZM277.488 195.248L251.698 200.953L252.13 202.906L277.92 197.201L277.488 195.248ZM250.924 202.066L255.48 235.128L257.461 234.855L252.905 201.793L250.924 202.066ZM256.988 234.136L246.149 227.572L245.113 229.282L255.952 235.847L256.988 234.136ZM246.622 228.291L242.066 195.228L240.085 195.502L244.64 228.564L246.622 228.291ZM241.294 196.341L267.001 190.586L266.564 188.634L240.857 194.389L241.294 196.341ZM301.223 184.654L301.033 183.672L301.021 183.674L301.009 183.677L301.223 184.654ZM309.188 189.478L310.153 189.215L309.188 189.478ZM304.513 197.197L304.727 198.174L304.739 198.171L304.752 198.168L304.513 197.197ZM296.548 192.373L295.577 192.611L295.583 192.636L295.59 192.659L296.548 192.373ZM289.374 203.292L289.892 202.436L289.037 201.918L288.519 202.774L289.374 203.292ZM298.16 208.613L299.016 209.131L299.534 208.276L298.678 207.758L298.16 208.613ZM275.284 246.386L274.766 247.241L275.621 247.759L276.139 246.904L275.284 246.386ZM266.498 241.065L265.642 240.547L265.124 241.402L265.98 241.92L266.498 241.065ZM298.098 188.037C298.887 186.734 299.984 185.948 301.436 185.631L301.009 183.677C299.012 184.114 297.456 185.237 296.388 187.001L298.098 188.037ZM301.412 185.636C302.962 185.336 304.336 185.576 305.591 186.336L306.627 184.626C304.926 183.595 303.043 183.284 301.033 183.672L301.412 185.636ZM305.591 186.336C306.972 187.172 307.829 188.299 308.223 189.741L310.153 189.215C309.616 187.25 308.422 185.712 306.627 184.626L305.591 186.336ZM308.223 189.741C308.615 191.176 308.426 192.512 307.637 193.814L309.348 194.85C310.416 193.087 310.691 191.187 310.153 189.215L308.223 189.741ZM307.637 193.814C306.887 195.053 305.789 195.854 304.275 196.226L304.752 198.168C306.754 197.676 308.309 196.567 309.348 194.85L307.637 193.814ZM304.3 196.22C302.839 196.539 301.443 196.301 300.063 195.465L299.027 197.175C300.821 198.262 302.738 198.608 304.727 198.174L304.3 196.22ZM300.063 195.465C298.808 194.705 297.958 193.598 297.506 192.086L295.59 192.659C296.177 194.621 297.325 196.145 299.027 197.175L300.063 195.465ZM297.519 192.134C297.147 190.62 297.348 189.276 298.098 188.037L296.388 187.001C295.348 188.717 295.085 190.609 295.577 192.611L297.519 192.134ZM288.856 204.147L297.642 209.468L298.678 207.758L289.892 202.436L288.856 204.147ZM297.305 208.095L274.429 245.868L276.139 246.904L299.016 209.131L297.305 208.095ZM275.802 245.53L267.016 240.209L265.98 241.92L274.766 247.241L275.802 245.53ZM267.353 241.583L290.229 203.81L288.519 202.774L265.642 240.547L267.353 241.583ZM308.179 226.465L307.719 225.577L307.707 225.583L308.179 226.465ZM319.665 223.994L319.612 224.992L319.618 224.992L319.665 223.994ZM340.522 236.625L339.654 237.123L339.661 237.135L340.522 236.625ZM343.571 247.899L342.571 247.89L342.571 247.903L343.571 247.899ZM331.138 268.428L330.671 267.544L330.666 267.546L331.138 268.428ZM319.685 271.031L319.632 272.03L319.646 272.03L319.685 271.031ZM298.828 258.4L297.96 258.897L297.965 258.906L297.971 258.915L298.828 258.4ZM295.747 246.994L294.747 246.976L294.746 246.987L294.747 246.998L295.747 246.994ZM306.148 247.794L305.149 247.749L305.149 247.762L306.148 247.794ZM307.636 254.419L306.747 254.877L306.753 254.888L306.758 254.898L307.636 254.419ZM319.132 261.381L319.113 262.381L319.125 262.381L319.137 262.381L319.132 261.381ZM325.692 259.63L326.183 260.501L326.195 260.494L325.692 259.63ZM333.251 247.149L334.25 247.194L334.25 247.194L333.251 247.149ZM331.764 240.524L332.641 240.044L331.764 240.524ZM313.708 235.313L313.205 234.448L313.205 234.448L313.708 235.313ZM300.191 235.656C302.464 231.902 305.287 229.147 308.651 227.347L307.707 225.583C303.987 227.574 300.914 230.6 298.48 234.62L300.191 235.656ZM308.639 227.353C312.077 225.573 315.729 224.787 319.612 224.992L319.718 222.995C315.48 222.771 311.475 223.633 307.719 225.577L308.639 227.353ZM319.618 224.992C323.587 225.177 327.416 226.378 331.117 228.619L332.153 226.908C328.19 224.508 324.039 223.196 319.711 222.995L319.618 224.992ZM331.117 228.619C334.875 230.895 337.71 233.731 339.655 237.123L341.389 236.128C339.258 232.411 336.169 229.34 332.153 226.908L331.117 228.619ZM339.661 237.135C341.641 240.478 342.608 244.057 342.571 247.89L344.571 247.909C344.611 243.707 343.545 239.77 341.383 236.116L339.661 237.135ZM342.571 247.903C342.586 251.748 341.479 255.537 339.209 259.287L340.92 260.323C343.357 256.298 344.588 252.151 344.571 247.895L342.571 247.903ZM339.209 259.287C336.973 262.978 334.126 265.719 330.671 267.544L331.605 269.312C335.41 267.303 338.514 264.295 340.92 260.323L339.209 259.287ZM330.666 267.546C327.284 269.356 323.643 270.185 319.724 270.032L319.646 272.03C323.913 272.197 327.908 271.29 331.61 269.31L330.666 267.546ZM319.737 270.033C315.86 269.828 312.045 268.602 308.282 266.324L307.246 268.034C311.257 270.463 315.389 271.806 319.632 272.03L319.737 270.033ZM308.282 266.324C304.577 264.079 301.719 261.265 299.684 257.884L297.971 258.915C300.187 262.598 303.288 265.637 307.246 268.034L308.282 266.324ZM299.695 257.902C297.742 254.497 296.762 250.865 296.746 246.99L294.747 246.998C294.763 251.223 295.837 255.195 297.96 258.897L299.695 257.902ZM296.746 247.011C296.815 243.134 297.952 239.353 300.191 235.656L298.48 234.62C296.077 238.588 294.822 242.71 294.747 246.976L296.746 247.011ZM307.595 240.14C306.095 242.616 305.267 245.156 305.149 247.749L307.147 247.839C307.248 245.626 307.954 243.408 309.305 241.176L307.595 240.14ZM305.149 247.762C305.068 250.279 305.601 252.656 306.747 254.877L308.524 253.96C307.536 252.045 307.078 250.006 307.148 247.826L305.149 247.762ZM306.758 254.898C307.951 257.08 309.698 258.857 311.971 260.233L313.007 258.523C311.009 257.313 309.522 255.784 308.513 253.939L306.758 254.898ZM311.971 260.233C314.243 261.609 316.628 262.335 319.113 262.381L319.15 260.381C317.048 260.342 315.005 259.733 313.007 258.523L311.971 260.233ZM319.137 262.381C321.636 262.368 323.99 261.739 326.183 260.501L325.2 258.759C323.301 259.831 321.281 260.37 319.127 260.381L319.137 262.381ZM326.195 260.494C328.438 259.189 330.305 257.279 331.805 254.802L330.094 253.766C328.742 255.998 327.104 257.651 325.189 258.766L326.195 260.494ZM331.805 254.802C333.304 252.326 334.133 249.787 334.25 247.194L332.252 247.103C332.152 249.317 331.446 251.535 330.094 253.766L331.805 254.802ZM334.25 247.194C334.366 244.617 333.833 242.226 332.641 240.044L330.886 241.003C331.894 242.848 332.353 244.874 332.252 247.103L334.25 247.194ZM332.641 240.044C331.449 237.863 329.701 236.085 327.429 234.709L326.393 236.42C328.39 237.63 329.878 239.159 330.886 241.003L332.641 240.044ZM327.429 234.709C325.156 233.333 322.771 232.608 320.286 232.562L320.249 234.561C322.351 234.6 324.395 235.21 326.393 236.42L327.429 234.709ZM320.286 232.562C317.8 232.516 315.434 233.151 313.205 234.448L314.21 236.177C316.14 235.055 318.147 234.523 320.249 234.561L320.286 232.562ZM313.205 234.448C310.961 235.754 309.094 237.664 307.595 240.14L309.305 241.176C310.657 238.945 312.295 237.291 314.21 236.177L313.205 234.448ZM344.163 276.877L344.402 277.848L344.163 276.877ZM352.457 281.9L351.48 282.115L351.483 282.127L351.486 282.139L352.457 281.9ZM347.583 289.947L347.845 290.912L347.583 289.947ZM339.289 284.925L338.313 285.139L338.315 285.151L338.318 285.163L339.289 284.925ZM340.939 280.424C341.767 279.057 342.908 278.215 344.402 277.848L343.925 275.906C341.902 276.403 340.324 277.58 339.229 279.388L340.939 280.424ZM344.402 277.848C345.987 277.459 347.459 277.686 348.877 278.545L349.913 276.834C348.047 275.703 346.031 275.389 343.925 275.906L344.402 277.848ZM348.877 278.545C350.295 279.403 351.142 280.58 351.48 282.115L353.433 281.685C352.974 279.595 351.781 277.965 349.913 276.834L348.877 278.545ZM351.486 282.139C351.852 283.632 351.635 285.033 350.807 286.4L352.518 287.436C353.612 285.628 353.925 283.684 353.428 281.662L351.486 282.139ZM350.807 286.4C350.017 287.705 348.874 288.56 347.321 288.982L347.845 290.912C349.874 290.361 351.451 289.197 352.518 287.436L350.807 286.4ZM347.321 288.982C345.804 289.394 344.368 289.188 342.951 288.33L341.915 290.041C343.782 291.171 345.78 291.473 347.845 290.912L347.321 288.982ZM342.951 288.33C341.533 287.471 340.65 286.271 340.261 284.686L338.318 285.163C338.836 287.269 340.048 288.91 341.915 290.041L342.951 288.33ZM340.266 284.71C339.92 283.138 340.149 281.729 340.939 280.424L339.229 279.388C338.162 281.149 337.861 283.086 338.313 285.139L340.266 284.71Z" fill="#2E2E2E" mask="url(#path-4-outside-1_96_43)"/>
</svg>
