<svg width="23" height="23" viewBox="0 0 23 23" fill="none" xmlns="http://www.w3.org/2000/svg">
<path d="M4.8335 6.50012H3.66683C3.04799 6.50012 2.4545 6.74595 2.01691 7.18354C1.57933 7.62112 1.3335 8.21462 1.3335 8.83346V19.3335C1.3335 19.9523 1.57933 20.5458 2.01691 20.9834C2.4545 21.421 3.04799 21.6668 3.66683 21.6668H14.1668C14.7857 21.6668 15.3792 21.421 15.8167 20.9834C16.2543 20.5458 16.5002 19.9523 16.5002 19.3335V18.1668" stroke="white" stroke-width="2" stroke-linecap="round" stroke-linejoin="round"/>
<path d="M15.3337 4.16683L18.8337 7.66683M20.4495 6.016C20.909 5.55651 21.1671 4.93331 21.1671 4.2835C21.1671 3.63369 20.909 3.01049 20.4495 2.551C19.99 2.09151 19.3668 1.83337 18.717 1.83337C18.0672 1.83337 17.444 2.09151 16.9845 2.551L7.16699 12.3335V15.8335H10.667L20.4495 6.016Z" stroke="white" stroke-width="2" stroke-linecap="round" stroke-linejoin="round"/>
</svg>
