<svg width="515" height="380" viewBox="0 0 515 380" fill="none" xmlns="http://www.w3.org/2000/svg">
<path d="M497.066 291.514C494.696 303.417 485.833 313.507 471.694 321.537C457.556 329.567 438.2 335.502 414.979 339.11C368.541 346.326 306.759 344.218 240.648 331.057C174.536 317.896 116.657 296.183 76.5227 271.734C56.454 259.508 40.8466 246.612 30.8616 233.78C20.8754 220.947 16.5517 208.233 18.9212 196.33C21.2908 184.427 30.1542 174.337 44.2936 166.307C58.4315 158.277 77.7876 152.342 101.008 148.734C147.446 141.518 209.228 143.626 275.34 156.787C341.451 169.948 399.331 191.661 439.464 216.111C459.533 228.336 475.141 241.232 485.126 254.064C495.112 266.897 499.436 279.611 497.066 291.514Z" stroke="#2E2E2E"/>
<path d="M497.066 237.416C494.696 249.319 485.833 259.408 471.694 267.439C457.556 275.468 438.2 281.404 414.979 285.012C368.541 292.228 306.759 290.119 240.648 276.958C174.536 263.798 116.657 242.085 76.5227 217.635C56.454 205.409 40.8466 192.513 30.8616 179.682C20.8754 166.849 16.5517 154.134 18.9212 142.231C21.2908 130.328 30.1542 120.239 44.2936 112.208C58.4315 104.179 77.7876 98.2434 101.008 94.6352C147.446 87.4194 209.228 89.5277 275.34 102.689C341.451 115.849 399.331 137.562 439.464 162.012C459.533 174.238 475.141 187.133 485.126 199.965C495.112 212.798 499.436 225.513 497.066 237.416Z" stroke="#2E2E2E"/>
<path d="M497.066 183.317C494.696 195.22 485.833 205.31 471.694 213.34C457.556 221.369 438.2 227.305 414.979 230.913C368.541 238.129 306.759 236.021 240.648 222.86C174.536 209.699 116.657 187.986 76.5227 163.536C56.454 151.31 40.8466 138.415 30.8616 125.583C20.8754 112.75 16.5517 100.035 18.9212 88.1325C21.2908 76.2295 30.1542 66.14 44.2936 58.1096C58.4315 50.0802 77.7876 44.1447 101.008 40.5365C147.446 33.3208 209.228 35.4291 275.34 48.5899C341.451 61.7508 399.331 83.4638 439.464 107.913C459.533 120.139 475.141 133.035 485.126 145.866C495.112 158.7 499.436 171.414 497.066 183.317Z" stroke="#2E2E2E"/>
</svg>
