<svg width="1498" height="691" viewBox="0 0 1498 691" fill="none" xmlns="http://www.w3.org/2000/svg">
<path d="M1429.81 96.6725C1431.42 92.3194 1437.58 92.3194 1439.19 96.6725L1450.85 128.193C1451.36 129.562 1452.44 130.641 1453.81 131.147L1485.33 142.811C1489.68 144.422 1489.68 150.578 1485.33 152.189L1453.81 163.853C1452.44 164.359 1451.36 165.438 1450.85 166.807L1439.19 198.327C1437.58 202.681 1431.42 202.681 1429.81 198.327L1418.15 166.807C1417.64 165.438 1416.56 164.359 1415.19 163.853L1383.67 152.189C1379.32 150.578 1379.32 144.422 1383.67 142.811L1415.19 131.147C1416.56 130.641 1417.64 129.562 1418.15 128.193L1429.81 96.6725Z" fill="#2E2E2E"/>
<circle cx="19" cy="19" r="19" transform="matrix(1 0 0 -1 1460 585)" fill="#80FF00"/>
<path d="M1388.38 593.375C1387.66 588.79 1393.03 585.784 1396.56 588.797L1413.95 603.633C1415.06 604.581 1416.53 604.996 1417.97 604.77L1440.55 601.229C1445.14 600.51 1448.14 605.884 1445.13 609.415L1430.29 626.8C1429.34 627.91 1428.93 629.378 1429.16 630.82L1432.7 653.399C1433.41 657.985 1428.04 660.99 1424.51 657.977L1407.13 643.141C1406.02 642.194 1404.55 641.779 1403.1 642.005L1380.53 645.546C1375.94 646.265 1372.93 640.891 1375.95 637.36L1390.78 619.975C1391.73 618.865 1392.15 617.396 1391.92 615.955L1388.38 593.375Z" fill="#2E2E2E"/>
<circle cx="966.5" cy="166.5" r="40.5" fill="#2E2E2E"/>
<circle cx="56.1819" cy="53.6726" r="26.585" transform="rotate(171.23 56.1819 53.6726)" fill="#2E2E2E"/>
<ellipse cx="1015" cy="228.5" rx="24" ry="24.5" fill="#80FF00"/>
<ellipse cx="18.5128" cy="18.3043" rx="15.7541" ry="16.0823" transform="rotate(171.23 18.5128 18.3043)" fill="#2E2E2E"/>
</svg>
