<svg width="123" height="123" viewBox="0 0 123 123" fill="none" xmlns="http://www.w3.org/2000/svg">
<circle cx="61.5" cy="61.5" r="61.5" fill="#D9D9D9"/>
<path d="M37 38H46L52 32H70L76 38H85C86.5913 38 88.1174 38.6321 89.2426 39.7574C90.3679 40.8826 91 42.4087 91 44V80C91 81.5913 90.3679 83.1174 89.2426 84.2426C88.1174 85.3679 86.5913 86 85 86H37C35.4087 86 33.8826 85.3679 32.7574 84.2426C31.6321 83.1174 31 81.5913 31 80V44C31 42.4087 31.6321 40.8826 32.7574 39.7574C33.8826 38.6321 35.4087 38 37 38ZM61 47C57.0218 47 53.2064 48.5804 50.3934 51.3934C47.5804 54.2064 46 58.0218 46 62C46 65.9782 47.5804 69.7936 50.3934 72.6066C53.2064 75.4196 57.0218 77 61 77C64.9782 77 68.7936 75.4196 71.6066 72.6066C74.4196 69.7936 76 65.9782 76 62C76 58.0218 74.4196 54.2064 71.6066 51.3934C68.7936 48.5804 64.9782 47 61 47ZM61 53C63.3869 53 65.6761 53.9482 67.364 55.636C69.0518 57.3239 70 59.6131 70 62C70 64.3869 69.0518 66.6761 67.364 68.364C65.6761 70.0518 63.3869 71 61 71C58.6131 71 56.3239 70.0518 54.636 68.364C52.9482 66.6761 52 64.3869 52 62C52 59.6131 52.9482 57.3239 54.636 55.636C56.3239 53.9482 58.6131 53 61 53Z" fill="#3F3F3F"/>
</svg>
