<svg width="40" height="40" viewBox="0 0 40 40" fill="none" xmlns="http://www.w3.org/2000/svg">
<circle cx="20" cy="20" r="20" fill="#D9D9D9"/>
<path d="M12.0326 12.3578H14.9594L16.9107 10.4066H22.7643L24.7155 12.3578H27.6424C28.1599 12.3578 28.6562 12.5633 29.0221 12.9293C29.388 13.2952 29.5936 13.7915 29.5936 14.309V26.0163C29.5936 26.5338 29.388 27.0301 29.0221 27.396C28.6562 27.762 28.1599 27.9675 27.6424 27.9675H12.0326C11.5151 27.9675 11.0188 27.762 10.6529 27.396C10.287 27.0301 10.0814 26.5338 10.0814 26.0163V14.309C10.0814 13.7915 10.287 13.2952 10.6529 12.9293C11.0188 12.5633 11.5151 12.3578 12.0326 12.3578ZM19.8375 15.2846C18.5437 15.2846 17.303 15.7985 16.3882 16.7134C15.4734 17.6282 14.9594 18.8689 14.9594 20.1627C14.9594 21.4564 15.4734 22.6971 16.3882 23.612C17.303 24.5268 18.5437 25.0407 19.8375 25.0407C21.1312 25.0407 22.372 24.5268 23.2868 23.612C24.2016 22.6971 24.7155 21.4564 24.7155 20.1627C24.7155 18.8689 24.2016 17.6282 23.2868 16.7134C22.372 15.7985 21.1312 15.2846 19.8375 15.2846ZM19.8375 17.2358C20.6137 17.2358 21.3582 17.5442 21.9071 18.0931C22.456 18.642 22.7643 19.3864 22.7643 20.1627C22.7643 20.9389 22.456 21.6833 21.9071 22.2322C21.3582 22.7811 20.6137 23.0895 19.8375 23.0895C19.0612 23.0895 18.3168 22.7811 17.7679 22.2322C17.219 21.6833 16.9107 20.9389 16.9107 20.1627C16.9107 19.3864 17.219 18.642 17.7679 18.0931C18.3168 17.5442 19.0612 17.2358 19.8375 17.2358Z" fill="#3F3F3F"/>
</svg>
